<?xml version="1.0" encoding="utf-8"?>
<!-- Generator: Adobe Illustrator 16.0.0, SVG Export Plug-In . SVG Version: 6.00 Build 0)  -->
<!DOCTYPE svg PUBLIC "-//W3C//DTD SVG 1.1//EN" "http://www.w3.org/Graphics/SVG/1.1/DTD/svg11.dtd">
<svg version="1.1" id="图层_1" xmlns="http://www.w3.org/2000/svg" xmlns:xlink="http://www.w3.org/1999/xlink" x="0px" y="0px"
	 width="80px" height="80px" viewBox="0 0 80 80" enable-background="new 0 0 80 80" xml:space="preserve">
<path id="l_1_" fill="#EFEEEF" d="M72.96,68.443l-6.017-10.401c0.605-2.311,0.93-4.735,0.93-7.234
	c0-15.688-12.717-28.404-28.403-28.404c-0.471,0-0.937,0.012-1.401,0.035L30.271,1.164l-12.3,4.506l1.976,5.394l6.939-2.543
	l5.42,14.795c-1.809,0.47-3.547,1.113-5.197,1.912L22.1,11.555L9.8,16.062l1.976,5.393l6.939-2.542l3.438,9.382
	C15.41,33.487,11.065,41.64,11.065,50.808c0,15.688,12.717,28.403,28.403,28.403c9.024,0,17.063-4.208,22.266-10.768H72.96
	L72.96,68.443z M42.269,49.98l-3.863-10.543l-5.361,1.965l3.863,10.545l5.359-1.962l1.919,5.236l6.939-2.543l1.976,5.392
	l-12.3,4.507l-3.894-10.632L20,58.14c-3.939-10.753,1.583-22.661,12.336-26.603C43.089,27.599,55,33.122,58.938,43.874L42.269,49.98
	z"/>
</svg>
